<svg id="svg" version="1.1" width="400" height="46.111111111111114" xmlns="http://www.w3.org/2000/svg" xmlns:xlink="http://www.w3.org/1999/xlink" style="display: block;"><g id="svgg"><path id="path0" d="M277.167 0.167 C 277.167 0.272,276.020 0.333,274.060 0.333 C 271.297 0.333,270.929 0.366,270.732 0.625 C 270.469 0.972,270.401 6.653,270.655 7.127 C 270.739 7.286,270.850 7.548,270.899 7.708 C 270.973 7.947,271.187 8.000,272.078 8.000 C 272.895 8.000,273.167 8.058,273.167 8.231 C 273.167 8.378,273.445 8.504,273.926 8.576 C 274.344 8.639,274.727 8.797,274.778 8.928 C 274.828 9.059,275.078 9.167,275.333 9.167 C 275.592 9.167,275.840 9.277,275.894 9.417 C 275.950 9.563,276.199 9.667,276.495 9.667 C 276.833 9.667,277.000 9.749,277.000 9.917 C 277.000 10.054,277.096 10.167,277.213 10.167 C 277.330 10.167,277.554 10.317,277.711 10.500 C 277.868 10.683,278.147 10.833,278.332 10.833 C 278.518 10.833,278.667 10.944,278.667 11.083 C 278.667 11.221,278.779 11.333,278.917 11.333 C 279.054 11.333,279.167 11.446,279.167 11.583 C 279.167 11.721,279.270 11.833,279.397 11.833 C 279.524 11.833,279.667 11.983,279.715 12.167 C 279.763 12.350,279.922 12.500,280.068 12.500 C 280.214 12.500,280.333 12.612,280.333 12.750 C 280.333 12.887,280.446 13.000,280.583 13.000 C 280.721 13.000,280.833 13.145,280.833 13.321 C 280.833 13.498,280.931 13.742,281.051 13.863 C 281.171 13.984,281.318 14.215,281.379 14.375 C 281.440 14.535,281.604 14.667,281.745 14.667 C 281.918 14.667,282.000 14.829,282.000 15.172 C 282.000 15.467,282.104 15.717,282.250 15.773 C 282.389 15.827,282.500 16.074,282.500 16.333 C 282.500 16.592,282.611 16.840,282.750 16.894 C 282.911 16.955,283.001 17.215,283.002 17.620 C 283.005 18.495,283.164 19.000,283.436 19.000 C 283.626 19.000,283.667 19.743,283.667 23.250 C 283.667 26.757,283.626 27.500,283.436 27.500 C 283.182 27.500,283.006 27.995,283.002 28.720 C 283.001 28.979,282.887 29.303,282.750 29.440 C 282.612 29.578,282.500 29.948,282.500 30.262 C 282.500 30.659,282.424 30.833,282.250 30.833 C 282.086 30.833,282.000 30.998,282.000 31.314 C 282.000 31.654,281.903 31.820,281.667 31.882 C 281.483 31.930,281.333 32.080,281.333 32.217 C 281.333 32.353,281.221 32.508,281.083 32.560 C 280.946 32.613,280.833 32.811,280.833 33.000 C 280.833 33.189,280.721 33.387,280.583 33.440 C 280.446 33.492,280.333 33.678,280.333 33.851 C 280.333 34.056,280.216 34.167,280.000 34.167 C 279.815 34.167,279.667 34.278,279.667 34.417 C 279.667 34.554,279.554 34.667,279.417 34.667 C 279.279 34.667,279.167 34.779,279.167 34.917 C 279.167 35.054,279.092 35.167,279.000 35.167 C 278.908 35.167,278.683 35.317,278.500 35.500 C 278.317 35.683,278.017 35.833,277.833 35.833 C 277.648 35.833,277.500 35.944,277.500 36.083 C 277.500 36.221,277.387 36.333,277.250 36.333 C 277.112 36.333,277.000 36.446,277.000 36.583 C 277.000 36.758,276.824 36.833,276.417 36.833 C 276.017 36.833,275.833 36.910,275.833 37.076 C 275.833 37.220,275.602 37.362,275.262 37.425 C 274.947 37.484,274.649 37.638,274.600 37.766 C 274.544 37.914,274.260 38.000,273.833 38.000 C 273.385 38.000,273.124 38.085,273.060 38.250 C 272.987 38.441,272.674 38.500,271.736 38.500 C 270.984 38.500,270.241 38.606,269.822 38.774 C 269.187 39.028,269.096 39.028,268.563 38.774 C 268.179 38.591,267.548 38.500,266.656 38.500 C 265.625 38.500,265.301 38.443,265.227 38.250 C 265.162 38.082,264.898 38.000,264.417 38.000 C 263.957 38.000,263.670 37.917,263.612 37.766 C 263.563 37.637,263.299 37.482,263.025 37.422 C 262.752 37.362,262.486 37.205,262.436 37.073 C 262.384 36.937,262.124 36.833,261.839 36.833 C 261.501 36.833,261.333 36.751,261.333 36.583 C 261.333 36.427,261.175 36.333,260.911 36.333 C 260.679 36.333,260.446 36.221,260.394 36.083 C 260.341 35.946,260.156 35.833,259.982 35.833 C 259.778 35.833,259.667 35.716,259.667 35.500 C 259.667 35.315,259.556 35.167,259.417 35.167 C 259.279 35.167,259.167 35.054,259.167 34.917 C 259.167 34.779,259.062 34.667,258.934 34.667 C 258.807 34.667,258.659 34.554,258.606 34.417 C 258.554 34.279,258.396 34.167,258.255 34.167 C 258.111 34.167,258.000 34.022,258.000 33.833 C 258.000 33.648,257.889 33.500,257.750 33.500 C 257.612 33.500,257.500 33.387,257.500 33.250 C 257.500 33.112,257.393 33.000,257.263 33.000 C 257.133 33.000,256.978 32.781,256.920 32.514 C 256.861 32.247,256.705 31.986,256.573 31.936 C 256.441 31.885,256.333 31.737,256.333 31.606 C 256.333 31.476,256.221 31.326,256.083 31.273 C 255.940 31.218,255.833 30.970,255.833 30.692 C 255.833 30.426,255.721 30.114,255.583 30.000 C 255.446 29.886,255.333 29.577,255.333 29.314 C 255.333 29.017,255.208 28.758,255.000 28.628 C 254.729 28.459,254.667 28.239,254.667 27.455 C 254.667 26.751,254.599 26.464,254.417 26.394 C 254.206 26.313,254.167 25.784,254.167 23.060 C 254.167 20.336,254.206 19.808,254.417 19.727 C 254.591 19.660,254.667 19.388,254.667 18.824 C 254.667 18.263,254.747 17.972,254.929 17.870 C 255.073 17.789,255.233 17.411,255.284 17.028 C 255.342 16.597,255.464 16.333,255.605 16.333 C 255.755 16.333,255.833 16.132,255.833 15.750 C 255.833 15.343,255.909 15.167,256.083 15.167 C 256.221 15.167,256.333 15.054,256.333 14.917 C 256.333 14.779,256.442 14.667,256.576 14.667 C 256.721 14.667,256.862 14.433,256.928 14.083 C 256.990 13.749,257.136 13.500,257.269 13.500 C 257.396 13.500,257.500 13.387,257.500 13.250 C 257.500 13.112,257.612 13.000,257.750 13.000 C 257.887 13.000,258.000 12.887,258.000 12.750 C 258.000 12.612,258.120 12.500,258.266 12.500 C 258.412 12.500,258.570 12.350,258.618 12.167 C 258.666 11.983,258.809 11.833,258.936 11.833 C 259.063 11.833,259.167 11.721,259.167 11.583 C 259.167 11.446,259.247 11.333,259.345 11.333 C 259.443 11.333,259.636 11.221,259.774 11.083 C 259.911 10.946,260.175 10.833,260.361 10.833 C 260.558 10.833,260.734 10.695,260.785 10.500 C 260.833 10.317,260.967 10.167,261.082 10.167 C 261.198 10.167,261.386 10.054,261.500 9.917 C 261.614 9.779,261.886 9.667,262.104 9.667 C 262.345 9.667,262.500 9.569,262.500 9.417 C 262.500 9.252,262.664 9.167,262.980 9.167 C 263.243 9.167,263.548 9.060,263.656 8.930 C 263.764 8.799,264.148 8.643,264.510 8.582 C 264.912 8.514,265.167 8.379,265.167 8.235 C 265.167 8.066,265.390 7.998,265.958 7.994 C 267.476 7.984,267.500 7.920,267.500 3.848 L 267.500 0.333 232.000 0.333 C 193.048 0.333,196.597 0.248,195.500 1.208 C 195.317 1.369,195.092 1.500,195.000 1.500 C 194.908 1.500,194.833 1.613,194.833 1.750 C 194.833 1.887,194.718 2.000,194.578 2.000 C 194.438 2.000,194.280 2.112,194.227 2.250 C 194.174 2.387,194.027 2.500,193.899 2.500 C 193.771 2.500,193.667 2.612,193.667 2.750 C 193.667 2.887,193.559 3.000,193.428 3.000 C 193.297 3.000,193.142 3.150,193.083 3.333 C 193.025 3.517,192.870 3.667,192.739 3.667 C 192.607 3.667,192.500 3.779,192.500 3.917 C 192.500 4.054,192.387 4.167,192.250 4.167 C 192.112 4.167,192.000 4.270,192.000 4.397 C 192.000 4.524,191.850 4.667,191.667 4.715 C 191.483 4.763,191.333 4.922,191.333 5.068 C 191.333 5.214,191.221 5.333,191.083 5.333 C 190.946 5.333,190.833 5.446,190.833 5.583 C 190.833 5.721,190.721 5.833,190.583 5.833 C 190.446 5.833,190.333 5.946,190.333 6.083 C 190.333 6.222,190.185 6.333,190.000 6.333 C 189.813 6.333,189.667 6.444,189.667 6.587 C 189.667 6.726,189.479 6.926,189.250 7.030 C 189.021 7.135,188.833 7.283,188.833 7.360 C 188.833 7.437,188.718 7.500,188.578 7.500 C 188.438 7.500,188.281 7.610,188.229 7.744 C 188.178 7.878,187.993 8.033,187.818 8.088 C 187.643 8.144,187.500 8.297,187.500 8.428 C 187.500 8.559,187.387 8.667,187.250 8.667 C 187.112 8.667,187.000 8.779,187.000 8.917 C 187.000 9.054,186.885 9.167,186.745 9.167 C 186.604 9.167,186.446 9.279,186.394 9.417 C 186.341 9.554,186.193 9.667,186.066 9.667 C 185.938 9.667,185.833 9.817,185.833 10.000 C 185.833 10.185,185.722 10.333,185.583 10.333 C 185.446 10.333,185.333 10.446,185.333 10.583 C 185.333 10.722,185.185 10.833,185.000 10.833 C 184.815 10.833,184.667 10.944,184.667 11.083 C 184.667 11.221,184.554 11.333,184.417 11.333 C 184.278 11.333,184.167 11.481,184.167 11.667 C 184.167 11.852,184.056 12.000,183.917 12.000 C 183.779 12.000,183.667 12.112,183.667 12.250 C 183.667 12.387,183.558 12.500,183.426 12.500 C 183.294 12.500,182.900 12.762,182.551 13.083 C 182.202 13.403,181.823 13.665,181.708 13.666 C 181.594 13.666,181.500 13.779,181.500 13.917 C 181.500 14.054,181.406 14.168,181.292 14.170 C 181.038 14.173,180.333 14.892,180.333 15.148 C 180.333 15.250,180.218 15.333,180.078 15.333 C 179.938 15.333,179.780 15.446,179.727 15.583 C 179.674 15.721,179.527 15.833,179.399 15.833 C 179.271 15.833,179.167 15.946,179.167 16.083 C 179.167 16.221,179.054 16.333,178.917 16.333 C 178.779 16.333,178.667 16.437,178.667 16.564 C 178.667 16.691,178.517 16.834,178.333 16.882 C 178.150 16.930,178.000 17.088,178.000 17.234 C 178.000 17.380,177.887 17.500,177.750 17.500 C 177.612 17.500,177.500 17.612,177.500 17.750 C 177.500 17.887,177.387 18.000,177.250 18.000 C 177.112 18.000,177.000 18.112,177.000 18.250 C 177.000 18.387,176.915 18.500,176.811 18.500 C 176.707 18.500,176.458 18.669,176.259 18.875 C 176.059 19.081,175.723 19.362,175.512 19.500 C 175.300 19.637,174.872 19.994,174.561 20.292 C 174.249 20.590,173.920 20.833,173.830 20.833 C 173.740 20.833,173.667 20.946,173.667 21.083 C 173.667 21.221,173.573 21.335,173.458 21.336 C 173.204 21.340,172.500 22.059,172.500 22.315 C 172.500 22.417,172.387 22.500,172.250 22.500 C 172.112 22.500,172.000 22.613,172.000 22.750 C 172.000 22.889,171.852 23.000,171.667 23.000 C 171.481 23.000,171.333 23.111,171.333 23.250 C 171.333 23.387,171.221 23.500,171.083 23.500 C 170.944 23.500,170.833 23.648,170.833 23.833 C 170.833 24.019,170.722 24.167,170.583 24.167 C 170.446 24.167,170.333 24.279,170.333 24.417 C 170.333 24.554,170.214 24.667,170.068 24.667 C 169.208 24.667,169.178 24.913,169.172 32.125 L 169.167 38.833 146.208 38.831 C 121.421 38.829,122.500 38.860,122.500 38.142 C 122.500 37.864,122.393 37.615,122.250 37.560 C 122.105 37.505,122.000 37.255,122.000 36.967 C 122.000 36.609,121.906 36.444,121.667 36.382 C 121.397 36.311,121.333 36.154,121.333 35.559 C 121.333 35.058,121.253 34.792,121.083 34.727 C 120.940 34.672,120.833 34.423,120.833 34.144 C 120.833 33.864,120.727 33.615,120.583 33.560 C 120.446 33.508,120.332 33.304,120.331 33.107 C 120.327 32.487,120.136 32.000,119.897 32.000 C 119.745 32.000,119.667 31.802,119.667 31.417 C 119.667 31.009,119.591 30.833,119.417 30.833 C 119.245 30.833,119.167 30.661,119.167 30.282 C 119.167 29.979,119.057 29.585,118.922 29.407 C 118.787 29.229,118.675 28.870,118.672 28.609 C 118.668 28.278,118.566 28.109,118.333 28.048 C 118.086 27.984,118.000 27.821,118.000 27.418 C 118.000 27.119,117.888 26.781,117.750 26.667 C 117.613 26.553,117.500 26.214,117.500 25.914 C 117.500 25.583,117.402 25.331,117.250 25.273 C 117.108 25.219,117.000 24.970,117.000 24.698 C 117.000 24.430,116.853 24.085,116.667 23.917 C 116.460 23.730,116.333 23.403,116.333 23.058 C 116.333 22.673,116.256 22.500,116.083 22.500 C 115.910 22.500,115.833 22.326,115.833 21.937 C 115.833 21.627,115.721 21.281,115.583 21.167 C 115.446 21.053,115.333 20.787,115.333 20.577 C 115.333 20.021,115.164 19.667,114.899 19.667 C 114.746 19.667,114.667 19.473,114.667 19.101 C 114.667 18.752,114.571 18.499,114.417 18.440 C 114.252 18.376,114.167 18.115,114.167 17.672 C 114.167 17.186,114.098 17.000,113.917 17.000 C 113.746 17.000,113.667 16.829,113.667 16.457 C 113.667 16.094,113.556 15.844,113.333 15.705 C 113.090 15.554,113.000 15.317,113.000 14.832 C 113.000 14.352,112.930 14.167,112.750 14.167 C 112.577 14.167,112.500 13.993,112.500 13.601 C 112.500 13.278,112.403 12.998,112.274 12.949 C 112.149 12.901,111.998 12.553,111.937 12.175 C 111.877 11.797,111.716 11.445,111.580 11.392 C 111.441 11.339,111.333 11.088,111.333 10.816 C 111.333 10.498,111.248 10.333,111.083 10.333 C 110.898 10.333,110.833 10.138,110.833 9.578 C 110.833 9.061,110.755 8.793,110.583 8.727 C 110.438 8.671,110.333 8.422,110.333 8.133 C 110.333 7.776,110.239 7.611,110.000 7.548 C 109.730 7.478,109.667 7.321,109.667 6.725 C 109.667 6.225,109.587 5.959,109.417 5.894 C 109.273 5.839,109.167 5.590,109.167 5.310 C 109.167 5.031,109.060 4.782,108.917 4.727 C 108.779 4.674,108.666 4.470,108.664 4.274 C 108.660 3.654,108.469 3.167,108.231 3.167 C 108.078 3.167,108.000 2.969,108.000 2.583 C 108.000 2.176,107.925 2.000,107.750 2.000 C 107.582 2.000,107.500 1.832,107.500 1.489 C 107.500 0.288,107.702 0.333,102.327 0.333 L 97.500 0.333 97.500 0.917 C 97.500 1.324,97.425 1.500,97.250 1.500 C 97.065 1.500,97.000 1.694,97.000 2.250 C 97.000 2.780,96.932 3.000,96.768 3.000 C 96.511 3.000,96.333 3.351,96.333 3.859 C 96.333 4.041,96.221 4.303,96.083 4.440 C 95.946 4.578,95.833 4.948,95.833 5.262 C 95.833 5.659,95.757 5.833,95.583 5.833 C 95.404 5.833,95.333 6.016,95.333 6.474 C 95.333 6.903,95.223 7.215,95.000 7.417 C 94.817 7.583,94.667 7.924,94.667 8.175 C 94.667 8.427,94.555 8.674,94.417 8.727 C 94.245 8.793,94.167 9.061,94.167 9.578 C 94.167 10.138,94.102 10.333,93.917 10.333 C 93.751 10.333,93.667 10.499,93.667 10.825 C 93.667 11.095,93.552 11.381,93.411 11.460 C 93.271 11.538,93.110 11.898,93.053 12.260 C 92.996 12.621,92.848 12.977,92.725 13.050 C 92.601 13.123,92.500 13.395,92.500 13.655 C 92.500 13.914,92.387 14.219,92.250 14.333 C 92.106 14.452,92.000 14.816,92.000 15.187 C 92.000 15.628,91.926 15.833,91.768 15.833 C 91.487 15.833,91.333 16.193,91.333 16.852 C 91.333 17.135,91.227 17.384,91.083 17.440 C 90.929 17.499,90.833 17.752,90.833 18.101 C 90.833 18.493,90.756 18.667,90.583 18.667 C 90.399 18.667,90.333 18.860,90.333 19.405 C 90.333 19.998,90.267 20.165,90.000 20.250 C 89.764 20.325,89.667 20.502,89.667 20.856 C 89.667 21.132,89.554 21.470,89.417 21.607 C 89.279 21.745,89.167 22.114,89.167 22.429 C 89.167 22.825,89.090 23.000,88.917 23.000 C 88.742 23.000,88.667 23.176,88.667 23.583 C 88.667 23.944,88.540 24.294,88.333 24.500 C 88.148 24.685,88.000 25.056,88.000 25.333 C 88.000 25.667,87.917 25.833,87.750 25.833 C 87.571 25.833,87.500 26.016,87.500 26.480 C 87.500 26.851,87.394 27.214,87.250 27.333 C 87.112 27.447,87.000 27.753,87.000 28.012 C 87.000 28.271,86.885 28.548,86.745 28.626 C 86.604 28.705,86.443 29.065,86.386 29.426 C 86.329 29.788,86.182 30.143,86.058 30.217 C 85.934 30.290,85.833 30.562,85.833 30.821 C 85.833 31.080,85.721 31.386,85.583 31.500 C 85.440 31.619,85.333 31.983,85.333 32.354 C 85.333 32.795,85.260 33.000,85.101 33.000 C 84.844 33.000,84.667 33.351,84.667 33.859 C 84.667 34.041,84.554 34.303,84.417 34.440 C 84.279 34.578,84.167 34.948,84.167 35.262 C 84.167 35.659,84.090 35.833,83.917 35.833 C 83.736 35.833,83.667 36.018,83.667 36.499 C 83.667 36.983,83.576 37.220,83.333 37.372 C 83.150 37.487,83.000 37.760,83.000 37.980 C 83.000 38.677,82.579 38.822,80.542 38.828 C 79.399 38.831,78.667 38.768,78.667 38.667 C 78.667 38.575,78.517 38.500,78.333 38.500 C 78.088 38.500,78.000 38.389,78.000 38.078 C 78.000 37.846,77.887 37.613,77.750 37.560 C 77.612 37.508,77.500 37.358,77.500 37.227 C 77.500 37.096,77.387 36.946,77.250 36.894 C 77.112 36.841,77.000 36.693,77.000 36.566 C 77.000 36.438,76.850 36.333,76.667 36.333 C 76.452 36.333,76.333 36.222,76.333 36.020 C 76.333 35.848,76.221 35.614,76.083 35.500 C 75.946 35.386,75.833 35.187,75.833 35.058 C 75.833 34.929,75.721 34.780,75.583 34.727 C 75.446 34.674,75.333 34.527,75.333 34.399 C 75.333 34.271,75.183 34.167,75.000 34.167 C 74.778 34.167,74.667 34.056,74.667 33.833 C 74.667 33.648,74.556 33.500,74.417 33.500 C 74.279 33.500,74.167 33.361,74.167 33.192 C 74.167 33.023,74.017 32.711,73.833 32.500 C 73.650 32.289,73.500 32.052,73.500 31.974 C 73.500 31.897,73.387 31.833,73.250 31.833 C 73.112 31.833,73.000 31.721,73.000 31.583 C 73.000 31.446,72.906 31.330,72.792 31.327 C 72.677 31.323,72.402 30.948,72.181 30.494 C 71.959 30.039,71.678 29.667,71.556 29.667 C 71.433 29.667,71.333 29.554,71.333 29.417 C 71.333 29.279,71.221 29.167,71.083 29.167 C 70.944 29.167,70.833 29.019,70.833 28.833 C 70.833 28.648,70.722 28.500,70.583 28.500 C 70.446 28.500,70.333 28.387,70.333 28.250 C 70.333 28.112,70.196 27.863,70.029 27.696 C 69.862 27.528,69.676 27.266,69.617 27.112 C 69.559 26.959,69.433 26.833,69.339 26.833 C 69.244 26.833,69.167 26.721,69.167 26.583 C 69.167 26.446,69.054 26.333,68.917 26.333 C 68.779 26.333,68.667 26.221,68.667 26.083 C 68.667 25.932,68.821 25.833,69.058 25.833 C 69.272 25.833,69.584 25.683,69.750 25.500 C 69.952 25.277,70.263 25.167,70.692 25.167 C 71.151 25.167,71.333 25.096,71.333 24.917 C 71.333 24.765,71.488 24.667,71.730 24.667 C 71.948 24.667,72.219 24.554,72.333 24.417 C 72.447 24.279,72.644 24.167,72.770 24.167 C 72.897 24.167,73.000 24.017,73.000 23.833 C 73.000 23.588,73.111 23.500,73.422 23.500 C 73.654 23.500,73.887 23.387,73.940 23.250 C 73.992 23.112,74.122 23.000,74.227 23.000 C 74.333 23.000,74.660 22.738,74.954 22.417 C 75.249 22.096,75.567 21.833,75.662 21.833 C 75.756 21.833,75.833 21.721,75.833 21.583 C 75.833 21.446,75.946 21.333,76.083 21.333 C 76.221 21.333,76.333 21.195,76.333 21.026 C 76.333 20.857,76.483 20.583,76.667 20.417 C 76.850 20.251,77.000 20.022,77.000 19.909 C 77.000 19.795,77.112 19.659,77.250 19.606 C 77.421 19.541,77.500 19.273,77.500 18.755 C 77.500 18.195,77.565 18.000,77.750 18.000 C 78.127 18.000,78.127 8.205,77.750 8.060 C 77.587 7.998,77.500 7.738,77.500 7.310 C 77.500 6.883,77.413 6.623,77.250 6.560 C 77.112 6.508,77.000 6.322,77.000 6.149 C 77.000 5.944,76.883 5.833,76.667 5.833 C 76.449 5.833,76.333 5.722,76.333 5.512 C 76.333 5.335,76.221 5.078,76.083 4.940 C 75.946 4.803,75.832 4.629,75.830 4.554 C 75.826 4.354,75.068 3.667,74.852 3.667 C 74.750 3.667,74.667 3.517,74.667 3.333 C 74.667 3.150,74.562 3.000,74.434 3.000 C 74.307 3.000,74.159 2.887,74.106 2.750 C 74.054 2.612,73.867 2.500,73.692 2.500 C 73.517 2.500,73.281 2.388,73.167 2.250 C 73.053 2.113,72.893 2.000,72.813 2.000 C 72.732 2.000,72.517 1.850,72.333 1.667 C 72.150 1.483,71.822 1.333,71.604 1.333 C 71.386 1.333,71.114 1.221,71.000 1.083 C 70.886 0.946,70.548 0.833,70.250 0.833 C 69.952 0.833,69.614 0.721,69.500 0.583 C 69.317 0.363,65.240 0.333,34.646 0.333 L 0.000 0.333 -0.000 4.125 L -0.000 7.917 1.958 7.917 C 3.035 7.917,6.098 7.935,8.765 7.958 L 13.613 8.000 13.728 14.955 C 13.796 19.074,13.909 21.975,14.005 22.071 C 14.107 22.173,14.167 26.641,14.167 34.117 L 14.167 46.000 17.750 46.000 L 21.333 46.000 21.333 27.000 L 21.333 8.000 43.333 8.000 C 62.231 8.000,65.333 8.033,65.333 8.237 C 65.333 8.367,65.563 8.524,65.845 8.586 C 66.126 8.648,66.396 8.804,66.446 8.932 C 66.495 9.061,66.717 9.167,66.940 9.167 C 67.162 9.167,67.387 9.279,67.440 9.417 C 67.492 9.554,67.640 9.667,67.768 9.667 C 67.896 9.667,68.000 9.779,68.000 9.917 C 68.000 10.056,68.148 10.167,68.333 10.167 C 68.603 10.167,68.667 10.278,68.667 10.750 C 68.667 11.157,68.742 11.333,68.917 11.333 C 69.127 11.333,69.167 11.694,69.167 13.583 C 69.167 15.472,69.127 15.833,68.917 15.833 C 68.762 15.833,68.667 15.990,68.667 16.244 C 68.667 16.484,68.528 16.729,68.333 16.833 C 68.150 16.931,68.000 17.122,68.000 17.256 C 68.000 17.390,67.896 17.500,67.768 17.500 C 67.640 17.500,67.492 17.612,67.440 17.750 C 67.387 17.887,67.158 18.000,66.930 18.000 C 66.703 18.000,66.457 18.104,66.383 18.230 C 66.160 18.617,65.000 18.695,58.417 18.768 C 54.093 18.816,51.964 18.900,51.708 19.031 C 51.188 19.298,51.111 26.545,51.625 26.935 C 51.841 27.099,52.674 27.157,54.842 27.161 C 57.742 27.167,58.662 27.314,58.665 27.774 C 58.666 27.879,58.779 28.008,58.917 28.060 C 59.054 28.113,59.167 28.346,59.167 28.578 C 59.167 28.842,59.260 29.000,59.417 29.000 C 59.554 29.000,59.667 29.120,59.667 29.266 C 59.667 29.412,59.798 29.567,59.958 29.610 C 60.119 29.653,60.420 30.058,60.628 30.511 C 60.836 30.963,61.080 31.333,61.170 31.333 C 61.260 31.333,61.333 31.446,61.333 31.583 C 61.333 31.722,61.481 31.833,61.667 31.833 C 61.882 31.833,62.000 31.944,62.000 32.146 C 62.000 32.318,62.112 32.553,62.250 32.667 C 62.387 32.781,62.500 32.980,62.500 33.109 C 62.500 33.238,62.613 33.387,62.750 33.440 C 62.888 33.492,63.000 33.640,63.000 33.768 C 63.000 33.896,63.150 34.000,63.333 34.000 C 63.551 34.000,63.667 34.111,63.667 34.321 C 63.667 34.498,63.779 34.755,63.917 34.893 C 64.054 35.030,64.167 35.261,64.167 35.405 C 64.167 35.549,64.279 35.667,64.417 35.667 C 64.554 35.667,64.667 35.786,64.667 35.932 C 64.667 36.078,64.817 36.237,65.000 36.285 C 65.183 36.333,65.333 36.504,65.333 36.666 C 65.333 36.827,65.446 37.053,65.583 37.167 C 65.721 37.281,65.833 37.480,65.833 37.609 C 65.833 37.738,65.946 37.887,66.083 37.940 C 66.221 37.992,66.333 38.140,66.333 38.268 C 66.333 38.396,66.483 38.500,66.667 38.500 C 66.912 38.500,67.000 38.611,67.000 38.922 C 67.000 39.154,67.112 39.387,67.250 39.440 C 67.387 39.492,67.500 39.678,67.500 39.851 C 67.500 40.025,67.612 40.167,67.750 40.167 C 67.887 40.167,68.000 40.279,68.000 40.417 C 68.000 40.556,68.148 40.667,68.333 40.667 C 68.590 40.667,68.667 40.778,68.667 41.149 C 68.667 41.424,68.774 41.672,68.917 41.727 C 69.054 41.780,69.167 41.938,69.167 42.078 C 69.167 42.218,69.279 42.333,69.417 42.333 C 69.554 42.333,69.667 42.453,69.667 42.599 C 69.667 42.745,69.817 42.904,70.000 42.952 C 70.217 43.009,70.333 43.179,70.333 43.441 C 70.333 43.663,70.446 43.887,70.583 43.940 C 70.721 43.992,70.833 44.142,70.833 44.273 C 70.833 44.404,70.946 44.554,71.083 44.606 C 71.221 44.659,71.333 44.807,71.333 44.934 C 71.333 45.062,71.483 45.167,71.667 45.167 C 71.911 45.167,72.000 45.278,72.000 45.583 L 72.000 46.000 81.131 46.000 L 90.261 46.000 90.547 45.516 C 90.705 45.250,90.833 44.800,90.833 44.516 C 90.833 44.168,90.915 44.000,91.083 44.000 C 91.272 44.000,91.333 43.796,91.333 43.167 C 91.333 42.565,91.398 42.333,91.566 42.333 C 91.856 42.333,92.000 41.971,92.000 41.236 C 92.000 40.841,92.077 40.667,92.250 40.667 C 92.439 40.667,92.500 40.463,92.500 39.833 C 92.500 39.204,92.561 39.000,92.750 39.000 C 92.922 39.000,93.000 38.827,93.000 38.442 C 93.000 38.097,93.127 37.770,93.333 37.583 C 93.522 37.413,93.667 37.070,93.667 36.796 C 93.667 36.528,93.779 36.197,93.917 36.060 C 94.054 35.922,94.167 35.550,94.167 35.233 C 94.167 34.874,94.261 34.620,94.417 34.560 C 94.586 34.495,94.667 34.229,94.667 33.732 C 94.667 33.217,94.736 33.000,94.899 33.000 C 95.188 33.000,95.333 32.638,95.333 31.921 C 95.333 31.584,95.431 31.332,95.583 31.273 C 95.749 31.210,95.833 30.948,95.833 30.500 C 95.833 30.052,95.918 29.790,96.083 29.727 C 96.238 29.668,96.333 29.414,96.333 29.066 C 96.333 28.722,96.464 28.369,96.667 28.167 C 96.850 27.983,97.000 27.640,97.000 27.405 C 97.000 27.169,97.112 26.864,97.250 26.726 C 97.388 26.589,97.500 26.182,97.500 25.821 C 97.500 25.351,97.570 25.167,97.750 25.167 C 97.939 25.167,98.000 24.963,98.000 24.333 C 98.000 23.732,98.065 23.500,98.232 23.500 C 98.523 23.500,98.667 23.137,98.667 22.403 C 98.667 22.008,98.743 21.833,98.917 21.833 C 99.096 21.833,99.167 21.650,99.167 21.187 C 99.167 20.816,99.273 20.452,99.417 20.333 C 99.554 20.219,99.667 19.884,99.667 19.589 C 99.667 19.263,99.798 18.933,100.000 18.750 C 100.188 18.580,100.333 18.237,100.333 17.962 C 100.333 17.695,100.446 17.364,100.583 17.226 C 100.721 17.089,100.833 16.717,100.833 16.400 C 100.833 16.041,100.928 15.787,101.083 15.727 C 101.253 15.662,101.333 15.396,101.333 14.899 C 101.333 14.384,101.402 14.167,101.566 14.167 C 101.854 14.167,102.000 13.805,102.000 13.088 C 102.000 12.751,102.097 12.498,102.250 12.440 C 102.404 12.381,102.500 12.440,102.500 12.594 C 102.500 12.731,102.612 12.887,102.750 12.940 C 102.893 12.994,103.000 13.243,103.000 13.518 C 103.000 13.783,103.150 14.150,103.333 14.333 C 103.540 14.540,103.667 14.889,103.667 15.250 C 103.667 15.657,103.742 15.833,103.917 15.833 C 104.101 15.833,104.167 16.026,104.167 16.566 C 104.167 17.063,104.247 17.328,104.417 17.394 C 104.563 17.450,104.667 17.699,104.667 17.995 C 104.667 18.278,104.813 18.647,105.000 18.833 C 105.185 19.019,105.333 19.389,105.333 19.667 C 105.333 20.000,105.417 20.167,105.583 20.167 C 105.772 20.167,105.833 20.370,105.833 21.000 C 105.833 21.630,105.894 21.833,106.083 21.833 C 106.258 21.833,106.333 22.009,106.333 22.417 C 106.333 22.778,106.460 23.127,106.667 23.333 C 106.850 23.517,107.000 23.884,107.000 24.149 C 107.000 24.424,107.107 24.672,107.250 24.727 C 107.414 24.790,107.500 25.050,107.500 25.486 C 107.500 25.866,107.596 26.207,107.725 26.283 C 107.848 26.357,107.997 26.716,108.054 27.083 C 108.112 27.449,108.273 27.832,108.413 27.934 C 108.552 28.037,108.667 28.346,108.667 28.623 C 108.667 28.900,108.779 29.219,108.917 29.333 C 109.054 29.447,109.167 29.794,109.167 30.104 C 109.167 30.493,109.244 30.667,109.417 30.667 C 109.590 30.667,109.667 30.841,109.667 31.236 C 109.667 31.971,109.810 32.333,110.101 32.333 C 110.260 32.333,110.333 32.538,110.333 32.980 C 110.333 33.351,110.440 33.714,110.583 33.833 C 110.721 33.947,110.833 34.294,110.833 34.604 C 110.833 34.993,110.910 35.167,111.083 35.167 C 111.257 35.167,111.333 35.341,111.333 35.736 C 111.333 36.471,111.477 36.833,111.768 36.833 C 111.931 36.833,112.000 37.051,112.000 37.566 C 112.000 38.063,112.080 38.328,112.250 38.394 C 112.405 38.453,112.500 38.707,112.500 39.060 C 112.500 39.414,112.595 39.668,112.750 39.727 C 112.894 39.782,113.000 40.031,113.000 40.314 C 113.000 40.974,113.153 41.333,113.434 41.333 C 113.599 41.333,113.667 41.553,113.667 42.083 C 113.667 42.639,113.731 42.833,113.917 42.833 C 114.089 42.833,114.167 43.006,114.167 43.385 C 114.167 43.688,114.277 44.082,114.411 44.260 C 114.546 44.438,114.658 44.797,114.661 45.057 C 114.665 45.388,114.767 45.557,115.000 45.618 C 115.183 45.666,115.333 45.772,115.333 45.853 C 115.333 45.937,128.436 46.000,146.167 46.000 L 177.000 46.000 177.000 37.601 C 177.000 30.289,177.032 29.190,177.250 29.106 C 177.387 29.054,177.500 28.896,177.500 28.755 C 177.500 28.615,177.612 28.500,177.750 28.500 C 177.887 28.500,178.000 28.430,178.000 28.345 C 178.000 28.259,178.148 28.142,178.329 28.085 C 178.510 28.027,178.924 27.722,179.249 27.407 C 179.574 27.091,179.913 26.833,180.003 26.833 C 180.093 26.833,180.167 26.721,180.167 26.583 C 180.167 26.446,180.260 26.332,180.375 26.330 C 180.629 26.327,181.333 25.608,181.333 25.352 C 181.333 25.250,181.483 25.167,181.667 25.167 C 181.852 25.167,182.000 25.056,182.000 24.917 C 182.000 24.779,182.112 24.667,182.250 24.667 C 182.387 24.667,182.500 24.554,182.500 24.417 C 182.500 24.279,182.612 24.167,182.750 24.167 C 182.889 24.167,183.000 24.019,183.000 23.833 C 183.000 23.611,183.111 23.500,183.333 23.500 C 183.519 23.500,183.667 23.389,183.667 23.250 C 183.667 23.113,183.742 23.000,183.833 23.000 C 183.925 23.000,184.150 22.869,184.333 22.708 C 185.162 21.983,185.292 21.885,185.554 21.784 C 185.708 21.725,185.833 21.600,185.833 21.505 C 185.833 21.411,185.946 21.333,186.083 21.333 C 186.221 21.333,186.333 21.262,186.333 21.174 C 186.333 20.968,187.134 20.167,187.341 20.167 C 187.428 20.167,187.500 20.054,187.500 19.917 C 187.500 19.779,187.612 19.667,187.750 19.667 C 187.887 19.667,188.000 19.563,188.000 19.436 C 188.000 19.309,188.150 19.166,188.333 19.118 C 188.517 19.070,188.667 18.912,188.667 18.766 C 188.667 18.620,188.779 18.500,188.917 18.500 C 189.054 18.500,189.167 18.387,189.167 18.250 C 189.167 18.112,189.279 18.000,189.417 18.000 C 189.554 18.000,189.667 17.923,189.667 17.829 C 189.667 17.735,189.856 17.586,190.088 17.498 C 190.319 17.410,190.552 17.225,190.605 17.086 C 190.659 16.947,190.809 16.833,190.940 16.833 C 191.070 16.833,191.220 16.721,191.273 16.583 C 191.326 16.446,191.473 16.333,191.601 16.333 C 191.729 16.333,191.833 16.221,191.833 16.083 C 191.833 15.946,191.953 15.833,192.099 15.833 C 192.245 15.833,192.404 15.683,192.452 15.500 C 192.500 15.317,192.643 15.167,192.769 15.167 C 192.896 15.167,193.000 15.054,193.000 14.917 C 193.000 14.779,193.115 14.667,193.255 14.667 C 193.396 14.667,193.554 14.554,193.606 14.417 C 193.659 14.279,193.807 14.167,193.934 14.167 C 194.062 14.167,194.167 14.017,194.167 13.833 C 194.167 13.648,194.278 13.500,194.417 13.500 C 194.554 13.500,194.667 13.387,194.667 13.250 C 194.667 13.111,194.815 13.000,195.000 13.000 C 195.185 13.000,195.333 12.889,195.333 12.750 C 195.333 12.612,195.438 12.500,195.566 12.500 C 195.693 12.500,195.841 12.386,195.895 12.247 C 195.948 12.109,196.181 11.923,196.412 11.835 C 196.644 11.747,196.833 11.598,196.833 11.504 C 196.833 11.410,196.904 11.333,196.991 11.333 C 197.221 11.333,198.000 10.578,198.000 10.356 C 198.000 10.252,198.115 10.167,198.255 10.167 C 198.396 10.167,198.554 10.054,198.606 9.917 C 198.659 9.779,198.807 9.667,198.934 9.667 C 199.062 9.667,199.167 9.554,199.167 9.417 C 199.167 9.279,199.279 9.167,199.417 9.167 C 199.554 9.167,199.667 9.059,199.667 8.928 C 199.667 8.797,199.817 8.642,200.000 8.583 C 200.183 8.525,200.333 8.370,200.333 8.239 C 200.333 8.033,203.930 8.000,226.734 8.000 C 253.053 8.000,253.135 8.001,253.048 8.333 C 253.000 8.517,252.857 8.667,252.731 8.667 C 252.604 8.667,252.500 8.771,252.500 8.899 C 252.500 9.027,252.387 9.174,252.250 9.227 C 252.112 9.280,252.000 9.475,252.000 9.660 C 252.000 9.845,251.850 10.091,251.667 10.205 C 251.483 10.320,251.333 10.508,251.333 10.623 C 251.333 10.739,251.221 10.833,251.083 10.833 C 250.946 10.833,250.833 10.975,250.833 11.149 C 250.833 11.322,250.721 11.508,250.583 11.560 C 250.446 11.613,250.333 11.837,250.333 12.059 C 250.333 12.321,250.217 12.491,250.000 12.548 C 249.809 12.598,249.667 12.776,249.667 12.964 C 249.667 13.145,249.554 13.386,249.417 13.500 C 249.279 13.614,249.167 13.802,249.167 13.917 C 249.167 14.032,249.054 14.219,248.917 14.333 C 248.779 14.447,248.667 14.719,248.667 14.937 C 248.667 15.177,248.569 15.333,248.419 15.333 C 248.258 15.333,248.133 15.568,248.065 15.997 C 248.006 16.362,247.855 16.746,247.729 16.851 C 247.603 16.955,247.500 17.285,247.500 17.583 C 247.500 17.882,247.387 18.219,247.250 18.333 C 247.072 18.481,247.000 18.872,247.000 19.687 C 247.000 20.579,246.946 20.833,246.758 20.833 C 246.195 20.833,246.149 25.874,246.709 26.187 C 246.954 26.324,247.000 26.599,247.000 27.930 C 247.000 29.181,247.052 29.530,247.250 29.606 C 247.423 29.673,247.500 29.943,247.500 30.486 C 247.500 30.917,247.610 31.415,247.745 31.593 C 247.879 31.771,247.992 32.130,247.995 32.391 C 247.998 32.722,248.100 32.891,248.333 32.952 C 248.601 33.022,248.667 33.179,248.667 33.752 C 248.667 34.231,248.748 34.496,248.917 34.560 C 249.054 34.613,249.167 34.803,249.167 34.983 C 249.167 35.163,249.279 35.422,249.417 35.560 C 249.554 35.697,249.667 35.887,249.667 35.982 C 249.667 36.077,249.817 36.235,250.000 36.333 C 250.195 36.438,250.333 36.682,250.333 36.923 C 250.333 37.177,250.429 37.333,250.583 37.333 C 250.721 37.333,250.833 37.446,250.833 37.583 C 250.833 37.721,250.983 37.983,251.167 38.167 C 251.350 38.350,251.500 38.612,251.500 38.750 C 251.500 38.887,251.612 39.000,251.750 39.000 C 251.887 39.000,252.000 39.115,252.000 39.255 C 252.000 39.396,252.112 39.554,252.250 39.606 C 252.387 39.659,252.500 39.807,252.500 39.934 C 252.500 40.062,252.604 40.167,252.732 40.167 C 252.860 40.167,253.008 40.279,253.060 40.417 C 253.113 40.554,253.271 40.667,253.411 40.667 C 253.552 40.667,253.668 40.760,253.670 40.875 C 253.674 41.185,254.325 41.733,255.121 42.096 C 255.508 42.272,255.827 42.517,255.829 42.641 C 255.831 42.764,255.978 42.902,256.155 42.949 C 256.332 42.995,256.517 43.138,256.567 43.266 C 256.616 43.395,256.846 43.500,257.078 43.500 C 257.342 43.500,257.500 43.594,257.500 43.750 C 257.500 43.925,257.676 44.000,258.083 44.000 C 258.471 44.000,258.667 44.078,258.667 44.232 C 258.667 44.473,259.012 44.667,259.442 44.667 C 259.579 44.667,259.803 44.779,259.940 44.917 C 260.078 45.054,260.477 45.167,260.827 45.167 C 261.240 45.167,261.498 45.255,261.560 45.417 C 261.631 45.601,261.922 45.667,262.661 45.667 C 263.220 45.667,263.667 45.741,263.667 45.833 C 263.667 45.941,265.472 46.000,268.750 46.000 C 272.028 46.000,273.833 45.941,273.833 45.833 C 273.833 45.741,274.272 45.667,274.816 45.667 C 275.535 45.667,275.823 45.600,275.894 45.417 C 275.959 45.247,276.225 45.167,276.727 45.167 C 277.229 45.167,277.495 45.087,277.560 44.917 C 277.616 44.771,277.866 44.667,278.161 44.667 C 278.444 44.667,278.813 44.520,279.000 44.333 C 279.183 44.150,279.486 44.000,279.672 44.000 C 279.858 44.000,280.054 43.888,280.106 43.750 C 280.159 43.613,280.335 43.500,280.497 43.500 C 280.660 43.500,280.886 43.387,281.000 43.250 C 281.114 43.112,281.355 43.000,281.536 43.000 C 281.724 43.000,281.902 42.858,281.952 42.667 C 282.009 42.449,282.179 42.333,282.441 42.333 C 282.663 42.333,282.887 42.221,282.940 42.083 C 282.992 41.946,283.142 41.833,283.273 41.833 C 283.404 41.833,283.554 41.721,283.606 41.583 C 283.659 41.446,283.807 41.333,283.934 41.333 C 284.062 41.333,284.167 41.183,284.167 41.000 C 284.167 40.815,284.278 40.667,284.417 40.667 C 284.554 40.667,284.667 40.554,284.667 40.417 C 284.667 40.278,284.815 40.167,285.000 40.167 C 285.185 40.167,285.333 40.056,285.333 39.917 C 285.333 39.779,285.446 39.667,285.583 39.667 C 285.722 39.667,285.833 39.519,285.833 39.333 C 285.833 39.148,285.944 39.000,286.083 39.000 C 286.221 39.000,286.333 38.887,286.333 38.750 C 286.333 38.612,286.418 38.500,286.523 38.500 C 286.823 38.500,287.500 37.682,287.500 37.320 C 287.500 37.138,287.612 36.946,287.750 36.894 C 287.887 36.841,288.000 36.693,288.000 36.566 C 288.000 36.438,288.104 36.333,288.232 36.333 C 288.487 36.333,288.667 35.983,288.667 35.486 C 288.667 35.311,288.779 35.167,288.917 35.167 C 289.091 35.167,289.167 34.991,289.167 34.583 C 289.167 34.176,289.242 34.000,289.417 34.000 C 289.582 34.000,289.667 33.834,289.667 33.508 C 289.667 33.234,289.783 32.952,289.929 32.870 C 290.073 32.789,290.233 32.412,290.284 32.031 C 290.335 31.650,290.479 31.253,290.605 31.149 C 290.747 31.030,290.835 30.606,290.839 30.021 C 290.842 29.462,290.943 28.953,291.089 28.760 C 291.457 28.273,291.452 19.748,291.083 19.606 C 290.900 19.536,290.833 19.247,290.833 18.523 C 290.833 17.799,290.767 17.510,290.583 17.440 C 290.421 17.377,290.333 17.118,290.333 16.698 C 290.333 16.263,290.224 15.953,290.000 15.750 C 289.792 15.562,289.667 15.237,289.667 14.886 C 289.667 14.539,289.571 14.286,289.417 14.227 C 289.279 14.174,289.167 13.961,289.167 13.753 C 289.167 13.544,289.054 13.281,288.917 13.167 C 288.779 13.053,288.667 12.867,288.667 12.755 C 288.667 12.643,288.517 12.416,288.333 12.250 C 288.150 12.084,288.000 11.810,288.000 11.641 C 288.000 11.472,287.887 11.333,287.750 11.333 C 287.612 11.333,287.500 11.195,287.500 11.026 C 287.500 10.856,287.350 10.545,287.167 10.333 C 286.983 10.122,286.833 9.885,286.833 9.808 C 286.833 9.730,286.721 9.667,286.583 9.667 C 286.446 9.667,286.333 9.554,286.333 9.417 C 286.333 9.279,286.221 9.167,286.083 9.167 C 285.946 9.167,285.833 9.054,285.833 8.917 C 285.833 8.779,285.730 8.667,285.603 8.667 C 285.142 8.667,285.164 8.007,285.629 7.890 C 286.689 7.624,322.389 7.956,322.592 8.234 C 322.699 8.380,322.910 8.500,323.062 8.500 C 323.213 8.500,323.465 8.650,323.622 8.833 C 323.779 9.017,323.965 9.167,324.035 9.167 C 324.259 9.167,324.833 9.733,324.833 9.954 C 324.833 10.071,324.946 10.167,325.083 10.167 C 325.221 10.167,325.333 10.311,325.333 10.488 C 325.333 10.665,325.446 10.922,325.583 11.060 C 326.260 11.736,325.829 15.670,324.983 16.551 C 324.855 16.684,324.640 16.952,324.505 17.146 C 324.370 17.341,324.161 17.500,324.041 17.500 C 323.921 17.500,323.780 17.612,323.727 17.750 C 323.674 17.887,323.494 18.000,323.327 18.000 C 323.160 18.000,322.921 18.103,322.794 18.229 C 322.405 18.619,321.294 18.695,314.917 18.768 C 310.723 18.816,308.630 18.900,308.375 19.031 C 307.855 19.297,307.778 26.545,308.292 26.935 C 308.511 27.101,309.416 27.157,311.958 27.161 C 314.094 27.165,315.333 27.228,315.333 27.333 C 315.333 27.425,315.446 27.500,315.583 27.500 C 315.721 27.500,315.833 27.645,315.833 27.821 C 315.833 27.998,315.946 28.255,316.083 28.393 C 316.221 28.530,316.333 28.718,316.333 28.810 C 316.333 28.902,316.483 29.025,316.667 29.083 C 316.874 29.149,317.000 29.336,317.000 29.577 C 317.000 29.790,317.112 30.008,317.250 30.060 C 317.387 30.113,317.500 30.271,317.500 30.411 C 317.500 30.552,317.612 30.667,317.750 30.667 C 317.889 30.667,318.000 30.815,318.000 30.999 C 318.000 31.181,318.150 31.424,318.333 31.539 C 318.517 31.653,318.667 31.879,318.667 32.040 C 318.667 32.201,318.779 32.333,318.917 32.333 C 319.054 32.333,319.167 32.475,319.167 32.649 C 319.167 32.822,319.279 33.008,319.417 33.060 C 319.554 33.113,319.667 33.316,319.667 33.510 C 319.667 33.724,319.799 33.899,320.000 33.952 C 320.183 34.000,320.333 34.172,320.333 34.335 C 320.333 34.498,320.446 34.674,320.583 34.727 C 320.721 34.780,320.833 35.013,320.833 35.245 C 320.833 35.509,320.927 35.667,321.083 35.667 C 321.221 35.667,321.333 35.786,321.333 35.932 C 321.333 36.078,321.483 36.237,321.667 36.285 C 321.903 36.347,322.000 36.512,322.000 36.853 C 322.000 37.169,322.086 37.333,322.250 37.333 C 322.389 37.333,322.500 37.481,322.500 37.667 C 322.500 37.850,322.607 38.000,322.737 38.000 C 322.867 38.000,323.023 38.225,323.083 38.500 C 323.144 38.775,323.300 39.000,323.430 39.000 C 323.560 39.000,323.667 39.150,323.667 39.333 C 323.667 39.519,323.778 39.667,323.917 39.667 C 324.054 39.667,324.167 39.811,324.167 39.988 C 324.167 40.165,324.265 40.409,324.384 40.530 C 324.504 40.651,324.652 40.881,324.712 41.042 C 324.773 41.202,324.938 41.333,325.078 41.333 C 325.218 41.333,325.333 41.474,325.333 41.646 C 325.333 41.818,325.446 42.053,325.583 42.167 C 325.721 42.281,325.833 42.480,325.833 42.609 C 325.833 42.738,325.946 42.887,326.083 42.940 C 326.221 42.992,326.333 43.140,326.333 43.266 C 326.333 43.393,326.483 43.591,326.667 43.705 C 326.850 43.820,327.000 44.048,327.000 44.212 C 327.000 44.376,327.112 44.554,327.250 44.606 C 327.387 44.659,327.500 44.799,327.500 44.917 C 327.500 45.035,327.612 45.174,327.750 45.227 C 327.887 45.280,328.000 45.475,328.000 45.661 C 328.000 46.000,328.015 46.000,346.566 46.000 C 366.905 46.000,365.333 46.078,365.333 45.064 C 365.333 44.840,365.446 44.613,365.583 44.560 C 365.752 44.496,365.833 44.231,365.833 43.750 C 365.833 43.269,365.915 43.004,366.083 42.940 C 366.255 42.874,366.333 42.606,366.333 42.089 C 366.333 41.554,366.401 41.333,366.566 41.333 C 366.847 41.333,367.000 40.974,367.000 40.314 C 367.000 40.031,367.106 39.782,367.250 39.727 C 367.406 39.667,367.500 39.413,367.500 39.054 C 367.500 38.736,367.613 38.364,367.750 38.226 C 367.887 38.089,368.000 37.723,368.000 37.413 C 368.000 37.074,368.104 36.791,368.262 36.703 C 368.406 36.623,368.566 36.245,368.617 35.864 C 368.668 35.483,368.813 35.086,368.938 34.982 C 369.064 34.878,369.167 34.510,369.167 34.164 C 369.167 33.759,369.256 33.502,369.417 33.440 C 369.588 33.374,369.667 33.106,369.667 32.589 C 369.667 32.054,369.735 31.833,369.899 31.833 C 370.190 31.833,370.333 31.471,370.333 30.736 C 370.333 30.341,370.410 30.167,370.583 30.167 C 370.772 30.167,370.833 29.963,370.833 29.333 C 370.833 28.704,370.894 28.500,371.083 28.500 C 371.262 28.500,371.333 28.318,371.333 27.859 C 371.333 27.430,371.443 27.119,371.667 26.917 C 371.891 26.714,372.000 26.403,372.000 25.969 C 372.000 25.548,372.087 25.289,372.250 25.227 C 372.394 25.172,372.500 24.922,372.500 24.637 C 372.500 24.365,372.613 24.030,372.750 23.893 C 372.887 23.755,373.000 23.348,373.000 22.988 C 373.000 22.542,373.073 22.333,373.231 22.333 C 373.481 22.333,373.661 21.840,373.664 21.143 C 373.666 20.901,373.779 20.659,373.917 20.606 C 374.082 20.543,374.167 20.281,374.167 19.833 C 374.167 19.385,374.251 19.124,374.417 19.060 C 374.583 18.996,374.667 18.734,374.667 18.272 C 374.667 17.761,374.754 17.526,375.000 17.372 C 375.240 17.222,375.333 16.983,375.333 16.516 C 375.333 16.095,375.420 15.836,375.583 15.773 C 375.749 15.710,375.833 15.448,375.833 15.000 C 375.833 14.552,375.918 14.290,376.083 14.227 C 376.250 14.163,376.333 13.900,376.333 13.439 C 376.333 12.927,376.420 12.693,376.667 12.539 C 376.862 12.417,377.000 12.150,377.000 11.895 C 377.000 11.526,377.039 11.491,377.250 11.667 C 377.387 11.781,377.500 12.119,377.500 12.419 C 377.500 12.750,377.598 13.002,377.750 13.060 C 377.894 13.116,378.000 13.365,378.000 13.648 C 378.000 14.307,378.153 14.667,378.434 14.667 C 378.599 14.667,378.667 14.887,378.667 15.422 C 378.667 15.939,378.745 16.207,378.917 16.273 C 379.069 16.332,379.167 16.584,379.167 16.923 C 379.167 17.227,379.279 17.589,379.417 17.726 C 379.554 17.864,379.667 18.214,379.667 18.504 C 379.667 18.891,379.755 19.054,380.000 19.118 C 380.270 19.189,380.333 19.346,380.333 19.941 C 380.333 20.442,380.413 20.708,380.583 20.773 C 380.747 20.836,380.833 21.095,380.833 21.523 C 380.833 21.951,380.920 22.210,381.083 22.273 C 381.234 22.331,381.333 22.583,381.333 22.909 C 381.333 23.237,381.464 23.567,381.667 23.750 C 381.873 23.937,382.000 24.263,382.000 24.609 C 382.000 24.994,382.078 25.167,382.250 25.167 C 382.439 25.167,382.500 25.370,382.500 26.000 C 382.500 26.630,382.561 26.833,382.750 26.833 C 382.911 26.833,383.001 26.996,383.002 27.292 C 383.006 28.005,383.183 28.500,383.436 28.500 C 383.588 28.500,383.667 28.696,383.667 29.071 C 383.667 29.386,383.779 29.755,383.917 29.893 C 384.054 30.030,384.167 30.411,384.167 30.738 C 384.167 31.156,384.241 31.333,384.417 31.333 C 384.590 31.333,384.667 31.508,384.667 31.903 C 384.667 32.637,384.810 33.000,385.101 33.000 C 385.264 33.000,385.333 33.217,385.333 33.732 C 385.333 34.229,385.414 34.495,385.583 34.560 C 385.724 34.614,385.833 34.863,385.833 35.130 C 385.833 35.390,385.943 35.749,386.078 35.926 C 386.213 36.104,386.325 36.463,386.328 36.724 C 386.332 37.055,386.434 37.224,386.667 37.285 C 386.943 37.357,387.000 37.512,387.000 38.186 C 387.000 38.798,387.062 39.000,387.250 39.000 C 387.435 39.000,387.500 39.195,387.500 39.755 C 387.500 40.273,387.579 40.541,387.750 40.606 C 387.893 40.661,388.000 40.910,388.000 41.184 C 388.000 41.450,388.150 41.817,388.333 42.000 C 388.540 42.206,388.667 42.556,388.667 42.917 C 388.667 43.324,388.742 43.500,388.917 43.500 C 389.102 43.500,389.167 43.695,389.167 44.255 C 389.167 44.773,389.245 45.041,389.417 45.106 C 389.554 45.159,389.667 45.382,389.667 45.601 L 389.667 46.000 394.833 46.000 L 400.000 46.000 400.000 45.167 C 400.000 44.708,399.925 44.333,399.833 44.333 C 399.742 44.333,399.667 44.068,399.667 43.745 C 399.667 43.375,399.574 43.120,399.417 43.060 C 399.262 43.001,399.167 42.748,399.167 42.399 C 399.167 42.007,399.090 41.833,398.917 41.833 C 398.769 41.833,398.666 41.680,398.664 41.458 C 398.661 40.822,398.472 40.333,398.231 40.333 C 398.078 40.333,398.000 40.136,398.000 39.750 C 398.000 39.343,397.925 39.167,397.750 39.167 C 397.576 39.167,397.500 38.992,397.500 38.595 C 397.500 38.281,397.387 37.911,397.250 37.774 C 397.113 37.636,397.000 37.375,397.000 37.192 C 397.000 36.684,396.822 36.333,396.566 36.333 C 396.413 36.333,396.333 36.140,396.333 35.768 C 396.333 35.419,396.238 35.166,396.083 35.106 C 395.920 35.044,395.833 34.784,395.833 34.356 C 395.833 33.929,395.747 33.669,395.583 33.606 C 395.446 33.554,395.333 33.314,395.333 33.073 C 395.333 32.776,395.227 32.608,395.000 32.548 C 394.730 32.478,394.667 32.321,394.667 31.725 C 394.667 31.225,394.587 30.959,394.417 30.894 C 394.262 30.834,394.167 30.581,394.167 30.232 C 394.167 29.841,394.090 29.667,393.917 29.667 C 393.750 29.667,393.667 29.500,393.667 29.167 C 393.667 28.889,393.519 28.519,393.333 28.333 C 393.147 28.147,393.000 27.778,393.000 27.495 C 393.000 27.199,392.896 26.950,392.750 26.894 C 392.611 26.840,392.500 26.592,392.500 26.333 C 392.500 26.074,392.389 25.827,392.250 25.773 C 392.113 25.720,391.999 25.506,391.998 25.297 C 391.994 24.656,391.806 24.167,391.564 24.167 C 391.412 24.167,391.333 23.969,391.333 23.583 C 391.333 23.176,391.258 23.000,391.083 23.000 C 390.904 23.000,390.833 22.817,390.833 22.354 C 390.833 21.983,390.727 21.619,390.583 21.500 C 390.446 21.386,390.333 21.115,390.333 20.898 C 390.333 20.681,390.183 20.409,390.000 20.295 C 389.762 20.146,389.667 19.906,389.667 19.455 C 389.667 19.047,389.578 18.789,389.417 18.727 C 389.262 18.668,389.167 18.414,389.167 18.066 C 389.167 17.674,389.090 17.500,388.917 17.500 C 388.750 17.500,388.667 17.333,388.667 17.000 C 388.667 16.722,388.519 16.352,388.333 16.167 C 388.147 15.980,388.000 15.611,388.000 15.328 C 388.000 15.033,387.896 14.783,387.750 14.727 C 387.611 14.674,387.500 14.426,387.500 14.169 C 387.500 13.915,387.397 13.622,387.271 13.517 C 387.145 13.413,386.994 13.028,386.935 12.664 C 386.867 12.235,386.742 12.000,386.581 12.000 C 386.409 12.000,386.333 11.822,386.333 11.417 C 386.333 11.009,386.258 10.833,386.083 10.833 C 385.915 10.833,385.833 10.665,385.833 10.317 C 385.833 10.034,385.726 9.602,385.594 9.359 C 385.463 9.116,385.311 8.710,385.258 8.458 C 385.204 8.206,385.049 8.000,384.913 8.000 C 384.754 8.000,384.667 7.834,384.667 7.532 C 384.667 7.274,384.557 6.918,384.422 6.740 C 384.287 6.562,384.175 6.173,384.172 5.875 C 384.168 5.507,384.087 5.333,383.917 5.333 C 383.753 5.333,383.667 5.170,383.667 4.859 C 383.667 4.597,383.518 4.250,383.333 4.083 C 383.125 3.895,383.000 3.570,383.000 3.219 C 383.000 2.872,382.904 2.619,382.750 2.560 C 382.607 2.505,382.500 2.256,382.500 1.977 C 382.500 1.697,382.393 1.449,382.250 1.394 C 382.107 1.339,382.000 1.090,382.000 0.816 L 382.000 0.333 377.250 0.333 C 373.139 0.333,372.500 0.367,372.500 0.583 C 372.500 0.721,372.387 0.833,372.250 0.833 C 372.075 0.833,372.000 1.009,372.000 1.417 C 372.000 1.778,371.873 2.127,371.667 2.333 C 371.483 2.517,371.333 2.884,371.333 3.149 C 371.333 3.424,371.226 3.672,371.083 3.727 C 370.912 3.793,370.833 4.061,370.833 4.578 C 370.833 5.138,370.769 5.333,370.583 5.333 C 370.403 5.333,370.333 5.518,370.333 5.999 C 370.333 6.483,370.243 6.720,370.000 6.872 C 369.781 7.009,369.667 7.261,369.667 7.606 C 369.667 7.919,369.566 8.170,369.417 8.227 C 369.253 8.290,369.167 8.549,369.167 8.977 C 369.167 9.405,369.080 9.664,368.917 9.727 C 368.755 9.789,368.667 10.047,368.667 10.455 C 368.667 10.906,368.571 11.146,368.333 11.295 C 368.126 11.424,368.000 11.683,368.000 11.981 C 368.000 12.244,367.887 12.553,367.750 12.667 C 367.606 12.786,367.500 13.149,367.500 13.520 C 367.500 13.984,367.429 14.167,367.250 14.167 C 367.071 14.167,367.000 14.349,367.000 14.808 C 367.000 15.237,366.890 15.548,366.667 15.750 C 366.483 15.916,366.333 16.233,366.333 16.454 C 366.333 16.676,366.221 16.970,366.083 17.107 C 365.946 17.245,365.833 17.652,365.833 18.012 C 365.833 18.483,365.763 18.667,365.583 18.667 C 365.399 18.667,365.333 18.860,365.333 19.405 C 365.333 19.998,365.267 20.165,365.000 20.250 C 364.764 20.325,364.667 20.502,364.667 20.856 C 364.667 21.132,364.554 21.470,364.417 21.607 C 364.279 21.745,364.167 22.106,364.167 22.411 C 364.167 22.749,364.069 23.002,363.917 23.060 C 363.747 23.125,363.667 23.392,363.667 23.892 C 363.667 24.488,363.603 24.644,363.333 24.715 C 363.081 24.781,363.000 24.942,363.000 25.381 C 363.000 25.699,362.887 26.053,362.750 26.167 C 362.613 26.281,362.500 26.627,362.500 26.937 C 362.500 27.326,362.423 27.500,362.250 27.500 C 362.062 27.500,362.000 27.702,362.000 28.314 C 362.000 28.988,361.943 29.143,361.667 29.215 C 361.434 29.276,361.332 29.445,361.328 29.776 C 361.325 30.037,361.213 30.396,361.078 30.574 C 360.943 30.751,360.833 31.110,360.833 31.370 C 360.833 31.637,360.724 31.886,360.583 31.940 C 360.414 32.005,360.333 32.271,360.333 32.768 C 360.333 33.283,360.264 33.500,360.101 33.500 C 359.820 33.500,359.667 33.859,359.667 34.519 C 359.667 34.802,359.561 35.051,359.417 35.106 C 359.265 35.165,359.167 35.417,359.167 35.750 C 359.167 36.083,359.069 36.335,358.917 36.394 C 358.745 36.459,358.667 36.727,358.667 37.245 C 358.667 37.801,358.602 38.000,358.420 38.000 C 358.284 38.000,358.126 38.188,358.068 38.417 L 357.964 38.833 346.649 38.833 C 339.216 38.833,335.333 38.776,335.333 38.667 C 335.333 38.575,335.202 38.498,335.042 38.496 C 334.863 38.493,334.626 38.219,334.429 37.787 C 334.066 36.991,333.519 36.340,333.208 36.336 C 333.094 36.335,333.000 36.221,333.000 36.083 C 333.000 35.946,332.887 35.833,332.750 35.833 C 332.599 35.833,332.500 35.679,332.500 35.443 C 332.500 35.014,331.860 34.167,331.536 34.167 C 331.425 34.167,331.333 34.017,331.333 33.833 C 331.333 33.648,331.222 33.500,331.083 33.500 C 330.946 33.500,330.833 33.403,330.833 33.284 C 330.833 33.064,330.487 32.549,329.958 31.980 C 329.798 31.808,329.667 31.592,329.667 31.500 C 329.667 31.408,329.554 31.333,329.417 31.333 C 329.279 31.333,329.167 31.221,329.167 31.083 C 329.167 30.946,329.054 30.833,328.917 30.833 C 328.778 30.833,328.667 30.685,328.667 30.500 C 328.667 30.317,328.517 30.017,328.333 29.833 C 328.150 29.650,328.000 29.425,328.000 29.333 C 328.000 29.242,327.887 29.167,327.750 29.167 C 327.611 29.167,327.500 29.019,327.500 28.833 C 327.500 28.648,327.389 28.500,327.250 28.500 C 327.112 28.500,327.000 28.388,327.000 28.251 C 327.000 28.115,326.850 27.909,326.667 27.795 C 326.483 27.680,326.333 27.463,326.333 27.311 C 326.333 27.160,326.221 26.992,326.083 26.940 C 325.946 26.887,325.833 26.729,325.833 26.589 C 325.833 26.448,325.726 26.333,325.596 26.333 C 325.240 26.333,325.205 25.795,325.540 25.460 C 325.701 25.299,326.061 25.167,326.339 25.167 C 326.634 25.167,326.884 25.063,326.940 24.917 C 326.994 24.774,327.243 24.667,327.518 24.667 C 327.835 24.667,328.000 24.581,328.000 24.417 C 328.000 24.279,328.144 24.167,328.320 24.167 C 328.787 24.167,329.166 23.992,329.170 23.774 C 329.172 23.669,329.547 23.413,330.003 23.205 C 330.460 22.997,330.833 22.716,330.833 22.580 C 330.833 22.444,330.946 22.333,331.083 22.333 C 331.221 22.333,331.333 22.238,331.333 22.120 C 331.333 22.003,331.483 21.779,331.667 21.622 C 331.850 21.465,332.000 21.231,332.000 21.103 C 332.000 20.974,332.112 20.826,332.250 20.773 C 332.396 20.717,332.500 20.467,332.500 20.172 C 332.500 19.834,332.583 19.667,332.750 19.667 C 332.925 19.667,333.000 19.491,333.000 19.083 C 333.000 18.698,333.078 18.500,333.231 18.500 C 333.503 18.500,333.661 17.995,333.664 17.120 C 333.666 16.715,333.756 16.455,333.917 16.394 C 334.127 16.313,334.167 15.787,334.167 13.083 C 334.167 10.380,334.127 9.854,333.917 9.773 C 333.745 9.707,333.667 9.439,333.667 8.922 C 333.667 8.389,333.569 8.069,333.333 7.833 C 333.147 7.647,333.000 7.278,333.000 6.995 C 333.000 6.699,332.896 6.450,332.750 6.394 C 332.612 6.341,332.500 6.116,332.500 5.894 C 332.500 5.671,332.387 5.446,332.250 5.394 C 332.112 5.341,332.000 5.196,332.000 5.071 C 332.000 4.947,331.850 4.765,331.667 4.667 C 331.472 4.562,331.333 4.318,331.333 4.077 C 331.333 3.823,331.238 3.667,331.083 3.667 C 330.946 3.667,330.833 3.582,330.833 3.477 C 330.833 3.264,330.059 2.500,329.843 2.500 C 329.765 2.500,329.659 2.387,329.606 2.250 C 329.554 2.113,329.321 2.000,329.089 2.000 C 328.822 2.000,328.667 1.907,328.667 1.746 C 328.667 1.606,328.486 1.423,328.266 1.339 C 328.046 1.256,327.817 1.108,327.756 1.010 C 327.696 0.913,327.464 0.833,327.240 0.833 C 326.990 0.833,326.833 0.737,326.833 0.583 C 326.833 0.417,326.667 0.333,326.333 0.333 C 326.058 0.333,325.833 0.258,325.833 0.167 C 325.833 0.056,317.611 0.000,301.500 0.000 C 285.389 0.000,277.167 0.056,277.167 0.167 M128.000 4.094 C 128.000 6.368,128.068 7.983,128.173 8.178 C 128.444 8.684,160.890 8.684,161.161 8.178 C 161.265 7.983,161.333 6.368,161.333 4.094 L 161.333 0.333 144.667 0.333 L 128.000 0.333 128.000 4.094 M169.243 0.542 C 169.199 0.656,169.183 5.475,169.207 11.250 L 169.250 21.750 170.042 21.801 C 170.540 21.833,170.833 21.783,170.833 21.667 C 170.833 21.566,171.058 21.404,171.333 21.308 C 171.608 21.212,171.833 21.071,171.833 20.995 C 171.833 20.918,171.983 20.808,172.167 20.750 C 172.350 20.692,172.500 20.537,172.500 20.405 C 172.500 20.274,172.612 20.167,172.750 20.167 C 172.887 20.167,173.000 20.054,173.000 19.917 C 173.000 19.778,173.148 19.667,173.333 19.667 C 173.519 19.667,173.667 19.556,173.667 19.417 C 173.667 19.279,173.761 19.167,173.877 19.167 C 173.992 19.167,174.180 19.017,174.295 18.833 C 174.409 18.650,174.652 18.500,174.835 18.500 C 175.019 18.500,175.167 18.389,175.167 18.250 C 175.167 18.112,175.282 18.000,175.422 18.000 C 175.562 18.000,175.720 17.887,175.773 17.750 C 175.826 17.612,175.973 17.500,176.101 17.500 C 176.229 17.500,176.333 17.350,176.333 17.167 C 176.333 16.944,176.444 16.833,176.667 16.833 C 176.996 16.833,177.000 16.722,177.000 8.583 L 177.000 0.333 173.161 0.333 C 170.244 0.333,169.304 0.383,169.243 0.542 M344.167 18.833 L 344.167 37.333 347.750 37.333 L 351.333 37.333 351.333 18.833 L 351.333 0.333 347.750 0.333 L 344.167 0.333 344.167 18.833 M41.333 27.583 L 41.333 46.000 45.000 46.000 L 48.667 46.000 48.667 27.583 L 48.667 9.167 45.000 9.167 L 41.333 9.167 41.333 27.583 M223.000 27.583 L 223.000 46.000 226.919 46.000 L 230.838 46.000 230.794 27.744 C 230.755 11.730,230.719 9.468,230.500 9.330 C 230.362 9.243,228.619 9.171,226.625 9.169 L 223.000 9.167 223.000 27.583 M298.104 9.688 C 298.047 9.974,298.000 18.261,298.000 28.104 L 298.000 46.000 301.917 46.000 L 305.833 46.000 305.833 27.583 L 305.833 9.167 302.021 9.167 L 298.208 9.167 298.104 9.688 M128.173 18.322 C 128.068 18.518,128.000 20.158,128.000 22.489 L 128.000 26.333 144.667 26.333 L 161.333 26.333 161.333 22.339 C 161.333 18.561,161.316 18.336,161.011 18.173 C 160.319 17.802,128.373 17.948,128.173 18.322 M188.122 21.256 C 187.780 21.488,187.500 21.751,187.500 21.839 C 187.500 21.928,187.387 22.000,187.250 22.000 C 187.112 22.000,187.000 22.113,187.000 22.250 C 187.000 22.387,186.885 22.500,186.745 22.500 C 186.604 22.500,186.446 22.613,186.394 22.750 C 186.341 22.887,186.193 23.000,186.066 23.000 C 185.938 23.000,185.833 23.113,185.833 23.250 C 185.833 23.387,185.721 23.500,185.583 23.500 C 185.444 23.500,185.333 23.648,185.333 23.833 C 185.333 24.056,185.222 24.167,185.000 24.167 C 184.815 24.167,184.667 24.278,184.667 24.417 C 184.667 24.554,184.554 24.667,184.417 24.667 C 183.778 24.667,184.351 27.194,185.042 27.425 C 185.202 27.479,185.333 27.658,185.333 27.824 C 185.333 27.990,185.446 28.219,185.583 28.333 C 185.721 28.447,185.833 28.644,185.833 28.770 C 185.833 28.897,185.910 29.000,186.004 29.000 C 186.098 29.000,186.247 29.189,186.335 29.421 C 186.423 29.652,186.609 29.885,186.747 29.939 C 186.886 29.992,187.000 30.178,187.000 30.351 C 187.000 30.525,187.112 30.667,187.250 30.667 C 187.387 30.667,187.500 30.812,187.500 30.990 C 187.500 31.168,187.580 31.363,187.677 31.423 C 187.774 31.483,187.922 31.713,188.006 31.933 C 188.090 32.153,188.273 32.333,188.413 32.333 C 188.552 32.333,188.667 32.478,188.667 32.655 C 188.667 32.832,188.779 33.089,188.917 33.226 C 189.054 33.364,189.167 33.594,189.167 33.738 C 189.167 33.882,189.279 34.000,189.417 34.000 C 189.554 34.000,189.667 34.145,189.667 34.322 C 189.667 34.499,189.817 34.692,190.000 34.750 C 190.213 34.818,190.333 35.002,190.333 35.261 C 190.333 35.511,190.430 35.667,190.583 35.667 C 190.721 35.667,190.833 35.809,190.833 35.982 C 190.833 36.156,190.946 36.341,191.083 36.394 C 191.221 36.446,191.333 36.649,191.333 36.844 C 191.333 37.058,191.465 37.232,191.667 37.285 C 191.850 37.333,192.000 37.505,192.000 37.668 C 192.000 37.831,192.112 38.008,192.250 38.060 C 192.387 38.113,192.500 38.346,192.500 38.578 C 192.500 38.842,192.594 39.000,192.750 39.000 C 192.887 39.000,193.000 39.110,193.000 39.244 C 193.000 39.378,193.150 39.569,193.333 39.667 C 193.528 39.771,193.667 40.016,193.667 40.256 C 193.667 40.510,193.762 40.667,193.917 40.667 C 194.056 40.667,194.167 40.815,194.167 41.000 C 194.167 41.183,194.246 41.333,194.342 41.333 C 194.438 41.333,194.596 41.558,194.692 41.833 C 194.788 42.108,194.971 42.333,195.100 42.333 C 195.228 42.333,195.333 42.483,195.333 42.667 C 195.333 42.852,195.444 43.000,195.583 43.000 C 195.750 43.000,195.833 43.167,195.833 43.500 C 195.833 43.815,195.919 44.000,196.064 44.000 C 196.191 44.000,196.334 44.150,196.382 44.333 C 196.430 44.517,196.588 44.667,196.734 44.667 C 196.918 44.667,197.000 44.820,197.000 45.167 C 197.000 45.500,197.083 45.667,197.250 45.667 C 197.387 45.667,197.500 45.742,197.500 45.833 C 197.500 45.941,199.278 46.000,202.500 46.000 L 207.500 46.000 207.500 45.583 C 207.500 45.354,207.421 45.167,207.325 45.167 C 207.228 45.167,207.071 44.942,206.975 44.667 C 206.879 44.392,206.696 44.167,206.567 44.167 C 206.438 44.167,206.333 44.017,206.333 43.833 C 206.333 43.648,206.222 43.500,206.083 43.500 C 205.946 43.500,205.833 43.393,205.833 43.262 C 205.833 43.131,205.731 42.921,205.605 42.796 C 205.480 42.670,205.325 42.403,205.261 42.201 C 205.197 41.999,205.037 41.833,204.905 41.833 C 204.774 41.833,204.667 41.721,204.667 41.583 C 204.667 41.446,204.554 41.333,204.417 41.333 C 204.276 41.333,204.167 41.184,204.167 40.993 C 204.167 40.575,203.517 39.667,203.219 39.667 C 203.098 39.667,203.000 39.525,203.000 39.351 C 203.000 39.178,202.887 38.992,202.750 38.940 C 202.612 38.887,202.500 38.689,202.500 38.500 C 202.500 38.311,202.387 38.113,202.250 38.060 C 202.112 38.008,202.000 37.869,202.000 37.752 C 202.000 37.635,201.850 37.500,201.667 37.452 C 201.476 37.402,201.333 37.224,201.333 37.036 C 201.333 36.855,201.221 36.614,201.083 36.500 C 200.946 36.386,200.833 36.189,200.833 36.063 C 200.833 35.937,200.730 35.833,200.603 35.833 C 200.476 35.833,200.333 35.683,200.285 35.500 C 200.237 35.317,200.078 35.167,199.932 35.167 C 199.748 35.167,199.667 35.013,199.667 34.667 C 199.667 34.333,199.583 34.167,199.417 34.167 C 199.278 34.167,199.167 34.019,199.167 33.833 C 199.167 33.648,199.056 33.500,198.917 33.500 C 198.779 33.500,198.667 33.406,198.667 33.290 C 198.667 33.175,198.517 32.987,198.333 32.872 C 198.150 32.758,198.000 32.512,198.000 32.327 C 198.000 32.141,197.887 31.946,197.750 31.894 C 197.612 31.841,197.500 31.693,197.500 31.566 C 197.500 31.438,197.393 31.333,197.263 31.333 C 197.133 31.333,196.977 31.108,196.917 30.833 C 196.856 30.558,196.700 30.333,196.570 30.333 C 196.440 30.333,196.333 30.183,196.333 30.000 C 196.333 29.815,196.222 29.667,196.083 29.667 C 195.946 29.667,195.833 29.554,195.833 29.417 C 195.833 29.279,195.729 29.167,195.602 29.167 C 195.469 29.167,195.324 28.917,195.261 28.583 C 195.195 28.234,195.054 28.000,194.909 28.000 C 194.776 28.000,194.667 27.887,194.667 27.750 C 194.667 27.613,194.554 27.500,194.417 27.500 C 194.279 27.500,194.167 27.393,194.167 27.262 C 194.167 26.911,193.450 25.849,193.208 25.840 C 193.094 25.837,193.000 25.683,193.000 25.500 C 193.000 25.315,192.889 25.167,192.750 25.167 C 192.612 25.167,192.500 25.022,192.500 24.845 C 192.500 24.668,192.402 24.425,192.282 24.304 C 192.163 24.182,192.015 23.952,191.954 23.792 C 191.893 23.631,191.729 23.500,191.589 23.500 C 191.448 23.500,191.333 23.396,191.333 23.268 C 191.333 23.140,191.221 22.992,191.083 22.940 C 190.946 22.887,190.833 22.654,190.833 22.422 C 190.833 22.158,190.740 22.000,190.583 22.000 C 190.446 22.000,190.333 21.880,190.333 21.734 C 190.333 21.588,190.183 21.430,190.000 21.382 C 189.817 21.334,189.667 21.191,189.667 21.064 C 189.667 20.687,188.801 20.795,188.122 21.256 " stroke="none" fill="#ffffff" fill-rule="evenodd"></path><path id="path1" d="M266.351 17.198 C 266.209 17.364,265.957 17.500,265.791 17.500 C 265.625 17.500,265.450 17.604,265.401 17.731 C 265.352 17.859,265.092 18.007,264.823 18.060 C 264.554 18.114,264.333 18.240,264.333 18.339 C 264.333 18.438,264.420 18.466,264.526 18.401 C 264.646 18.326,264.673 18.355,264.598 18.477 C 264.531 18.584,264.413 18.633,264.335 18.585 C 264.130 18.458,263.667 18.972,263.667 19.326 C 263.667 19.492,263.517 19.667,263.333 19.715 C 263.107 19.774,263.000 19.942,263.000 20.240 C 263.000 20.480,262.895 20.718,262.766 20.767 C 262.398 20.908,262.386 25.431,262.753 25.836 C 262.898 25.997,263.029 26.283,263.044 26.470 C 263.058 26.657,263.110 26.807,263.160 26.802 C 263.518 26.770,263.667 26.880,263.667 27.179 C 263.667 27.618,264.536 28.500,264.968 28.500 C 265.154 28.500,265.332 28.643,265.382 28.833 C 265.432 29.024,265.609 29.167,265.797 29.167 C 265.978 29.167,266.221 29.282,266.338 29.423 C 266.677 29.831,271.282 29.758,271.414 29.342 C 271.481 29.130,271.626 29.070,271.930 29.128 C 272.259 29.191,272.374 29.130,272.446 28.855 C 272.502 28.641,272.672 28.500,272.875 28.500 C 273.282 28.500,274.051 27.717,273.894 27.463 C 273.827 27.355,273.859 27.330,273.974 27.401 C 274.096 27.476,274.167 27.393,274.167 27.177 C 274.167 26.983,274.275 26.833,274.417 26.833 C 274.629 26.833,274.760 26.349,274.693 25.811 C 274.686 25.753,274.808 25.716,274.965 25.728 C 275.437 25.764,275.466 21.041,274.996 20.712 C 274.814 20.585,274.667 20.290,274.667 20.056 C 274.667 19.747,274.599 19.657,274.417 19.727 C 274.256 19.788,274.167 19.724,274.167 19.547 C 274.167 19.068,273.438 18.180,272.958 18.074 C 272.706 18.019,272.500 17.883,272.500 17.772 C 272.500 17.662,272.340 17.559,272.145 17.544 C 271.950 17.529,271.627 17.365,271.429 17.178 C 270.914 16.695,266.768 16.711,266.351 17.198 M100.205 32.167 C 100.088 32.355,99.817 32.500,99.582 32.500 C 99.354 32.500,99.185 32.585,99.208 32.689 C 99.231 32.794,99.053 32.935,98.811 33.003 C 98.250 33.162,97.705 33.708,97.570 34.246 C 97.511 34.477,97.359 34.667,97.232 34.667 C 97.097 34.667,97.000 34.837,97.000 35.074 C 97.000 35.298,96.855 35.583,96.678 35.707 C 96.186 36.051,96.184 40.480,96.676 40.925 C 96.854 41.086,97.000 41.311,97.000 41.425 C 97.000 41.538,97.112 41.674,97.250 41.727 C 97.388 41.780,97.500 41.962,97.500 42.131 C 97.500 42.575,98.383 43.500,98.807 43.500 C 99.005 43.500,99.167 43.597,99.167 43.715 C 99.167 43.833,99.335 43.942,99.542 43.957 C 99.748 43.972,100.038 44.134,100.185 44.316 C 100.591 44.816,105.072 44.823,105.339 44.323 C 105.434 44.145,105.661 44.000,105.844 44.000 C 106.027 44.000,106.220 43.887,106.273 43.750 C 106.326 43.612,106.497 43.500,106.654 43.500 C 107.080 43.500,108.000 42.607,108.000 42.193 C 108.000 41.950,108.103 41.833,108.319 41.833 C 108.558 41.833,108.626 41.732,108.592 41.423 C 108.567 41.197,108.681 40.868,108.845 40.692 C 109.300 40.204,109.292 36.121,108.836 35.631 C 108.665 35.447,108.565 35.192,108.613 35.065 C 108.667 34.926,108.594 34.833,108.430 34.833 C 108.281 34.833,108.081 34.627,107.985 34.375 C 107.752 33.758,107.008 33.000,106.635 33.000 C 106.469 33.000,106.333 32.887,106.333 32.750 C 106.333 32.602,106.180 32.500,105.957 32.500 C 105.750 32.500,105.487 32.350,105.372 32.167 C 105.180 31.859,104.983 31.833,102.789 31.833 C 100.594 31.833,100.398 31.859,100.205 32.167 M375.192 32.188 C 375.085 32.360,374.845 32.500,374.660 32.500 C 374.475 32.500,374.280 32.612,374.227 32.750 C 374.174 32.887,374.019 33.000,373.882 33.000 C 373.550 33.000,372.500 34.063,372.500 34.400 C 372.500 34.547,372.403 34.667,372.285 34.667 C 372.167 34.667,372.058 34.835,372.043 35.042 C 372.028 35.248,371.866 35.538,371.684 35.686 C 371.242 36.044,371.169 40.500,371.604 40.500 C 371.741 40.500,371.810 40.570,371.757 40.655 C 371.704 40.740,371.737 40.857,371.831 40.915 C 371.924 40.973,372.000 41.203,372.000 41.427 C 372.000 41.661,372.097 41.833,372.229 41.833 C 372.355 41.833,372.505 42.066,372.562 42.351 C 372.638 42.731,372.735 42.843,372.925 42.770 C 373.067 42.715,373.142 42.739,373.090 42.822 C 372.956 43.040,373.467 43.500,373.845 43.500 C 374.022 43.500,374.167 43.597,374.167 43.715 C 374.167 43.833,374.335 43.942,374.542 43.957 C 374.748 43.972,375.038 44.134,375.186 44.317 C 375.592 44.817,380.072 44.822,380.339 44.322 C 380.438 44.138,380.687 44.000,380.923 44.000 C 381.177 44.000,381.333 43.905,381.333 43.750 C 381.333 43.602,381.486 43.500,381.709 43.500 C 382.163 43.500,383.000 42.658,383.000 42.201 C 383.000 42.008,383.143 41.835,383.348 41.781 C 383.609 41.713,383.670 41.605,383.589 41.352 C 383.514 41.115,383.584 40.951,383.824 40.800 C 384.322 40.489,384.354 35.953,383.861 35.645 C 383.659 35.519,383.580 35.321,383.630 35.060 C 383.690 34.747,383.634 34.667,383.353 34.667 C 383.084 34.667,383.000 34.563,383.000 34.234 C 383.000 33.942,382.892 33.774,382.667 33.715 C 382.483 33.667,382.333 33.522,382.333 33.393 C 382.333 33.264,382.113 33.114,381.844 33.060 C 381.575 33.007,381.315 32.859,381.266 32.731 C 381.217 32.604,381.043 32.500,380.879 32.500 C 380.714 32.500,380.484 32.347,380.367 32.159 C 380.057 31.662,375.505 31.687,375.192 32.188 " stroke="none" fill="#fff324" fill-rule="evenodd"></path></g></svg>