<svg id="svg" version="1.1" width="400" height="400" xmlns="http://www.w3.org/2000/svg" xmlns:xlink="http://www.w3.org/1999/xlink" style="display: block;"><g id="svgg"><path id="path0" d="M0.000 199.600 L 0.000 399.200 59.800 399.200 L 119.600 399.200 119.600 390.600 L 119.600 382.000 68.200 382.000 L 16.800 382.000 16.800 199.400 L 16.800 16.800 200.000 16.800 L 383.200 16.800 383.200 199.400 L 383.200 382.000 331.800 382.000 L 280.400 382.000 280.400 390.600 L 280.400 399.200 340.200 399.200 L 400.000 399.200 400.000 199.600 L 400.000 0.000 200.000 0.000 L 0.000 0.000 0.000 199.600 " stroke="none" fill="#ffffff" fill-rule="evenodd"></path><path id="path1" d="M93.600 144.800 L 93.600 171.600 133.400 171.600 L 173.200 171.600 173.200 285.800 L 173.200 400.000 200.800 400.000 L 228.400 400.000 228.400 285.800 L 228.400 171.600 269.600 171.600 L 310.800 171.600 310.800 144.800 L 310.800 118.000 202.200 118.000 L 93.600 118.000 93.600 144.800 " stroke="none" fill="#fff324" fill-rule="evenodd"></path></g></svg>